<?xml version="1.0" encoding="utf-8"?>
<!-- Generator: Adobe Illustrator 23.0.0, SVG Export Plug-In . SVG Version: 6.00 Build 0)  -->
<!DOCTYPE svg PUBLIC "-//W3C//DTD SVG 1.1//EN" "http://www.w3.org/Graphics/SVG/1.1/DTD/svg11.dtd" [
	<!ENTITY ns_extend "http://ns.adobe.com/Extensibility/1.0/">
	<!ENTITY ns_ai "http://ns.adobe.com/AdobeIllustrator/10.0/">
	<!ENTITY ns_graphs "http://ns.adobe.com/Graphs/1.0/">
	<!ENTITY ns_vars "http://ns.adobe.com/Variables/1.0/">
	<!ENTITY ns_imrep "http://ns.adobe.com/ImageReplacement/1.0/">
	<!ENTITY ns_sfw "http://ns.adobe.com/SaveForWeb/1.0/">
	<!ENTITY ns_custom "http://ns.adobe.com/GenericCustomNamespace/1.0/">
	<!ENTITY ns_adobe_xpath "http://ns.adobe.com/XPath/1.0/">
]>
<svg version="1.1" id="图层_1" xmlns:x="&ns_extend;" xmlns:i="&ns_ai;" xmlns:graph="&ns_graphs;"
	 xmlns="http://www.w3.org/2000/svg" xmlns:xlink="http://www.w3.org/1999/xlink" x="0px" y="0px" viewBox="0 0 160.73 174.75"
	 style="enable-background:new 0 0 160.73 174.75;" xml:space="preserve">
<metadata>
	<sfw  xmlns="&ns_sfw;">
		<slices></slices>
		<sliceSourceBounds  bottomLeftOrigin="true" height="174.75" width="212.88" x="-9.49" y="13.09"></sliceSourceBounds>
	</sfw>
</metadata>
<path d="M-33.07,160.46"/>
<path d="M179.81,160.46"/>
<path d="M-11.01,153.38"/>
<path d="M80.16,39.54c9.75-0.83,16.87-3.7,21.85-6.79c2.73-1.69,5.57-3.58,7.82-5.69c2.14-2.84,3.68-5.12,5.25-7.43
	c1.43-2.09,2.48-4.88,3.54-8.53c0.77-2.68,1.39-5.41,1.39-8.62V0c-9.43,0.73-16.93,3.76-21.96,6.79c-2.89,1.74-5.46,3.58-7.93,5.69
	c-1.82,2.2-3.65,4.59-5.25,7.43c-1.39,2.48-2.63,5.05-3.54,8.71c-0.7,2.85-1.18,5.41-1.18,8.26L80.16,39.54L80.16,39.54z"/>
<path d="M0.02,98.89c-0.08,2.29,0.07,4.95,0.32,7.52c1.25,12.75,5.11,26.25,13.39,39.17c6.83,10.65,12.52,18.27,18.43,22.57
	c6.09,4.42,11.79,6.6,17.14,6.6c11.36,0,24.32-8.99,34.93-8.99c10.07,0,20.25,8.99,30.86,8.99c5.68,0,10.97-1.73,16.07-4.95
	c5.5-3.47,9.79-7.77,14.04-12.84c1.75-2.09,3.24-4.3,5.04-7.16c2.92-4.66,6.21-11.28,10.5-19.36v-1.19
	c-15.64-4.95-26.89-18.62-26.89-33.76c0-7.06,1.88-13.33,5.89-18.9c4.24-5.89,9.64-10,16.07-13.03
	c-9.64-11.19-24.75-17.52-36.53-17.52c-13.28,0-31.93,8.07-37.5,8.07c-5.68,0-17.78-7.43-33.75-7.43
	c-10.39,0-24.38,3.62-34.93,13.49C6.07,66.74,2.83,76.7,0.88,88.34C0.26,92.03,0.15,95.22,0.02,98.89z"/>
<path d="M171.76,153.38"/>
</svg>
