<?xml version="1.0" encoding="utf-8"?>
<!-- Generator: Adobe Illustrator 23.0.0, SVG Export Plug-In . SVG Version: 6.00 Build 0)  -->
<!DOCTYPE svg PUBLIC "-//W3C//DTD SVG 1.1//EN" "http://www.w3.org/Graphics/SVG/1.1/DTD/svg11.dtd" [
	<!ENTITY ns_extend "http://ns.adobe.com/Extensibility/1.0/">
	<!ENTITY ns_ai "http://ns.adobe.com/AdobeIllustrator/10.0/">
	<!ENTITY ns_graphs "http://ns.adobe.com/Graphs/1.0/">
	<!ENTITY ns_vars "http://ns.adobe.com/Variables/1.0/">
	<!ENTITY ns_imrep "http://ns.adobe.com/ImageReplacement/1.0/">
	<!ENTITY ns_sfw "http://ns.adobe.com/SaveForWeb/1.0/">
	<!ENTITY ns_custom "http://ns.adobe.com/GenericCustomNamespace/1.0/">
	<!ENTITY ns_adobe_xpath "http://ns.adobe.com/XPath/1.0/">
	<!ENTITY st0 "fill:#3D3D3D;">
]>
<svg version="1.1" id="图层_1" xmlns:x="&ns_extend;" xmlns:i="&ns_ai;" xmlns:graph="&ns_graphs;"
	 xmlns="http://www.w3.org/2000/svg" xmlns:xlink="http://www.w3.org/1999/xlink" x="0px" y="0px" viewBox="0 0 200 200"
	 style="enable-background:new 0 0 200 200;" xml:space="preserve">
<metadata>
	<sfw  xmlns="&ns_sfw;">
		<slices></slices>
		<sliceSourceBounds  bottomLeftOrigin="true" height="200" width="200" x="0" y="0"></sliceSourceBounds>
	</sfw>
</metadata>
<path style="&st0;" d="M100,200C44.78,200,0,155.23,0,100S44.78,0,100,0s100,44.78,100,100S155.23,200,100,200z M100,88.22
	l-41.28-41.3c-3.26-3.23-8.52-3.21-11.75,0.04c0,0,0,0,0,0c-3.26,3.21-3.29,8.46-0.08,11.71c0.01,0.01,0.02,0.02,0.04,0.04
	L88.22,100l-41.3,41.28c-3.23,3.26-3.21,8.52,0.04,11.75c0,0,0,0,0,0c3.21,3.26,8.46,3.29,11.71,0.08c0.01-0.01,0.02-0.02,0.04-0.04
	L100,111.78l41.28,41.29c3.26,3.23,8.52,3.21,11.75-0.04c0,0,0,0,0,0c3.26-3.21,3.29-8.46,0.08-11.71
	c-0.01-0.01-0.02-0.02-0.04-0.04L111.78,100l41.29-41.28c3.23-3.26,3.21-8.52-0.04-11.75c0,0,0,0,0,0
	c-3.21-3.26-8.46-3.29-11.71-0.08c-0.01,0.01-0.02,0.02-0.04,0.04C141.28,46.92,100,88.22,100,88.22z"/>
</svg>
