<?xml version="1.0" encoding="utf-8"?>
<!-- Generator: Adobe Illustrator 23.0.0, SVG Export Plug-In . SVG Version: 6.00 Build 0)  -->
<!DOCTYPE svg PUBLIC "-//W3C//DTD SVG 1.1//EN" "http://www.w3.org/Graphics/SVG/1.1/DTD/svg11.dtd" [
	<!ENTITY ns_extend "http://ns.adobe.com/Extensibility/1.0/">
	<!ENTITY ns_ai "http://ns.adobe.com/AdobeIllustrator/10.0/">
	<!ENTITY ns_graphs "http://ns.adobe.com/Graphs/1.0/">
	<!ENTITY ns_vars "http://ns.adobe.com/Variables/1.0/">
	<!ENTITY ns_imrep "http://ns.adobe.com/ImageReplacement/1.0/">
	<!ENTITY ns_sfw "http://ns.adobe.com/SaveForWeb/1.0/">
	<!ENTITY ns_custom "http://ns.adobe.com/GenericCustomNamespace/1.0/">
	<!ENTITY ns_adobe_xpath "http://ns.adobe.com/XPath/1.0/">
	<!ENTITY st0 "fill:#42392B;">
	<!ENTITY st1 "fill:#FFE1B4;">
]>
<svg version="1.1" id="图层_1" xmlns:x="&ns_extend;" xmlns:i="&ns_ai;" xmlns:graph="&ns_graphs;"
	 xmlns="http://www.w3.org/2000/svg" xmlns:xlink="http://www.w3.org/1999/xlink" x="0px" y="0px" viewBox="0 0 200 200"
	 style="enable-background:new 0 0 200 200;" xml:space="preserve">
<metadata>
	<sfw  xmlns="&ns_sfw;">
		<slices></slices>
		<sliceSourceBounds  bottomLeftOrigin="true" height="200" width="200" x="0" y="0"></sliceSourceBounds>
	</sfw>
</metadata>
<path style="&st0;" d="M0,100c0,55.23,44.77,100,100,100s100-44.77,100-100S155.23,0,100,0S0,44.77,0,100z"/>
<path style="&st1;" d="M37.29,45.76h125.42v93.22H37.29V45.76z"/>
<path style="&st0;" d="M136.36,182.08L30.72,168.53c-11.41-1.46-10.82-37.34-9.82-48.8l5.08-58.05c1-11.46,14.52-23.48,25.92-25.07
	L143,23.9c11.4-1.59,34.62,41.53,34.39,53.04l-1.69,86.94 M100,58.67c-22.33,0-38,9.58-38,9.58c8.58-7.67,23.58-12.08,23.58-12.08
	l-1.42-1.42c-14.08,0.25-26.83,10-26.83,10C43,94.67,43.92,120.5,43.92,120.5c11.67,15.08,29,14,29,14l5.92-7.5
	c-10.42-2.25-17-11.5-17-11.5S77.5,126.17,100,126.17s38.17-10.67,38.17-10.67s-6.58,9.25-17,11.5l5.92,7.5c0,0,17.33,1.08,29-14
	c0,0,0.92-25.83-13.42-55.75c0,0-12.75-9.75-26.83-10l-1.42,1.42c0,0,15,4.42,23.58,12.08C138,68.25,122.33,58.67,100,58.67
	 M82.75,90.25c5.42,0,9.83,4.75,9.75,10.58c0,5.75-4.33,10.58-9.75,10.58c-5.33,0-9.67-4.83-9.67-10.58
	C73.08,95,77.33,90.25,82.75,90.25 M117.5,90.25c5.42,0,9.75,4.75,9.75,10.58c0,5.75-4.33,10.58-9.75,10.58
	c-5.33,0-9.67-4.83-9.67-10.58C107.83,95,112.08,90.25,117.5,90.25z"/>
</svg>
