<?xml version="1.0" encoding="utf-8"?>
<!-- Generator: Adobe Illustrator 23.0.0, SVG Export Plug-In . SVG Version: 6.00 Build 0)  -->
<!DOCTYPE svg PUBLIC "-//W3C//DTD SVG 1.1//EN" "http://www.w3.org/Graphics/SVG/1.1/DTD/svg11.dtd" [
	<!ENTITY ns_extend "http://ns.adobe.com/Extensibility/1.0/">
	<!ENTITY ns_ai "http://ns.adobe.com/AdobeIllustrator/10.0/">
	<!ENTITY ns_graphs "http://ns.adobe.com/Graphs/1.0/">
	<!ENTITY ns_vars "http://ns.adobe.com/Variables/1.0/">
	<!ENTITY ns_imrep "http://ns.adobe.com/ImageReplacement/1.0/">
	<!ENTITY ns_sfw "http://ns.adobe.com/SaveForWeb/1.0/">
	<!ENTITY ns_custom "http://ns.adobe.com/GenericCustomNamespace/1.0/">
	<!ENTITY ns_adobe_xpath "http://ns.adobe.com/XPath/1.0/">
	<!ENTITY st0 "fill:#42392B;">
]>
<svg version="1.1" id="图层_1" xmlns:x="&ns_extend;" xmlns:i="&ns_ai;" xmlns:graph="&ns_graphs;"
	 xmlns="http://www.w3.org/2000/svg" xmlns:xlink="http://www.w3.org/1999/xlink" x="0px" y="0px" viewBox="0 0 175.56 175.56"
	 style="enable-background:new 0 0 175.56 175.56;" xml:space="preserve">
<metadata>
	<sfw  xmlns="&ns_sfw;">
		<slices></slices>
		<sliceSourceBounds  bottomLeftOrigin="true" height="175.56" width="175.56" x="12.22" y="12.22"></sliceSourceBounds>
	</sfw>
</metadata>
<path style="&st0;" d="M87.78,0C39.3,0,0,39.3,0,87.78s39.3,87.78,87.78,87.78s87.78-39.3,87.78-87.78S136.26,0,87.78,0z
	 M133.1,114.22c0,4.85-4.08,8.81-9.06,8.81H51.53c-4.98,0-9.06-3.97-9.06-8.81l0.04-43.53L86.7,94.12c0.68,0.36,1.49,0.36,2.17,0
	l44.23-23.46L133.1,114.22L133.1,114.22z M87.8,85.84L42.51,61.26c0.04-4.81,4.06-8.73,9.02-8.73h72.51c4.95,0,9,3.91,9.06,8.71
	L87.8,85.84L87.8,85.84z"/>
</svg>
