<?xml version="1.0" encoding="utf-8"?>
<!-- Generator: Adobe Illustrator 23.0.0, SVG Export Plug-In . SVG Version: 6.00 Build 0)  -->
<!DOCTYPE svg PUBLIC "-//W3C//DTD SVG 1.1//EN" "http://www.w3.org/Graphics/SVG/1.1/DTD/svg11.dtd" [
	<!ENTITY ns_extend "http://ns.adobe.com/Extensibility/1.0/">
	<!ENTITY ns_ai "http://ns.adobe.com/AdobeIllustrator/10.0/">
	<!ENTITY ns_graphs "http://ns.adobe.com/Graphs/1.0/">
	<!ENTITY ns_vars "http://ns.adobe.com/Variables/1.0/">
	<!ENTITY ns_imrep "http://ns.adobe.com/ImageReplacement/1.0/">
	<!ENTITY ns_sfw "http://ns.adobe.com/SaveForWeb/1.0/">
	<!ENTITY ns_custom "http://ns.adobe.com/GenericCustomNamespace/1.0/">
	<!ENTITY ns_adobe_xpath "http://ns.adobe.com/XPath/1.0/">
]>
<svg version="1.1" id="图层_1" xmlns:x="&ns_extend;" xmlns:i="&ns_ai;" xmlns:graph="&ns_graphs;"
	 xmlns="http://www.w3.org/2000/svg" xmlns:xlink="http://www.w3.org/1999/xlink" x="0px" y="0px" viewBox="0 0 160.73 174.75"
	 style="enable-background:new 0 0 160.73 174.75;" xml:space="preserve">
<metadata>
	<sfw  xmlns="&ns_sfw;">
		<slices></slices>
		<sliceSourceBounds  bottomLeftOrigin="true" height="170.76" width="209.75" x="-9.49" y="15.09"></sliceSourceBounds>
	</sfw>
</metadata>
<path d="M-33.07,160.46"/>
<path d="M176.68,158.8"/>
<path d="M-9.79,151.87"/>
<path d="M168.81,151.87"/>
<path d="M114.3,115.98l40.72-22.71c1.86-1.06,3.01-2.97,3.01-5.04V85.9c-0.01-2.07-1.15-3.98-3.01-5.04L114.3,58.07L87.59,86.99
	L114.3,115.98z M80.83,79.62l24.43-26.59L14.63,2.49c-1.58-0.66-3.38-0.66-4.97,0L80.83,79.62z M80.83,94.74L9.66,172.26
	c1.58,0.66,3.38,0.66,4.97,0l90.72-50.47L80.83,94.74z M3.47,10.16v153.65l70.6-76.82L3.47,10.16z"/>
</svg>
