<?xml version="1.0" encoding="utf-8"?>
<!-- Generator: Adobe Illustrator 23.0.0, SVG Export Plug-In . SVG Version: 6.00 Build 0)  -->
<!DOCTYPE svg PUBLIC "-//W3C//DTD SVG 1.1//EN" "http://www.w3.org/Graphics/SVG/1.1/DTD/svg11.dtd" [
	<!ENTITY ns_extend "http://ns.adobe.com/Extensibility/1.0/">
	<!ENTITY ns_ai "http://ns.adobe.com/AdobeIllustrator/10.0/">
	<!ENTITY ns_graphs "http://ns.adobe.com/Graphs/1.0/">
	<!ENTITY ns_vars "http://ns.adobe.com/Variables/1.0/">
	<!ENTITY ns_imrep "http://ns.adobe.com/ImageReplacement/1.0/">
	<!ENTITY ns_sfw "http://ns.adobe.com/SaveForWeb/1.0/">
	<!ENTITY ns_custom "http://ns.adobe.com/GenericCustomNamespace/1.0/">
	<!ENTITY ns_adobe_xpath "http://ns.adobe.com/XPath/1.0/">
	<!ENTITY st0 "fill:#5E5C5C;">
]>
<svg version="1.1" id="图层_1" xmlns:x="&ns_extend;" xmlns:i="&ns_ai;" xmlns:graph="&ns_graphs;"
	 xmlns="http://www.w3.org/2000/svg" xmlns:xlink="http://www.w3.org/1999/xlink" x="0px" y="0px" viewBox="0 0 200 200"
	 style="enable-background:new 0 0 200 200;" xml:space="preserve">
<metadata>
	<sfw  xmlns="&ns_sfw;">
		<slices></slices>
		<sliceSourceBounds  bottomLeftOrigin="true" height="200" width="200" x="0" y="0"></sliceSourceBounds>
	</sfw>
</metadata>
<path style="&st0;" d="M64.58,100c-0.01,1.96,0.81,3.84,2.25,5.17l46,43.08c2.83,2.65,7.27,2.5,9.92-0.33
	c2.65-2.83,2.5-7.27-0.33-9.92l-40.5-38l40.5-38c2.83-2.65,2.98-7.09,0.33-9.92c-2.65-2.83-7.09-2.98-9.92-0.33L66.67,94.58
	C65.22,96,64.46,97.98,64.58,100z M100,0C44.77,0,0,44.77,0,100s44.77,100,100,100s100-44.77,100-100S155.23,0,100,0z M100,14.08
	c47.4,0.02,85.82,38.46,85.8,85.86c-0.01,34.5-20.68,65.64-52.47,79.05c-43.61,18.59-94.03-1.7-112.61-45.31
	c-13.77-32.31-6.46-69.76,18.45-94.53c16.12-16.08,37.98-25.07,60.75-25L100,14.08z"/>
</svg>
