<?xml version="1.0" encoding="utf-8"?>
<!-- Generator: Adobe Illustrator 23.0.0, SVG Export Plug-In . SVG Version: 6.00 Build 0)  -->
<!DOCTYPE svg PUBLIC "-//W3C//DTD SVG 1.1//EN" "http://www.w3.org/Graphics/SVG/1.1/DTD/svg11.dtd" [
	<!ENTITY ns_extend "http://ns.adobe.com/Extensibility/1.0/">
	<!ENTITY ns_ai "http://ns.adobe.com/AdobeIllustrator/10.0/">
	<!ENTITY ns_graphs "http://ns.adobe.com/Graphs/1.0/">
	<!ENTITY ns_vars "http://ns.adobe.com/Variables/1.0/">
	<!ENTITY ns_imrep "http://ns.adobe.com/ImageReplacement/1.0/">
	<!ENTITY ns_sfw "http://ns.adobe.com/SaveForWeb/1.0/">
	<!ENTITY ns_custom "http://ns.adobe.com/GenericCustomNamespace/1.0/">
	<!ENTITY ns_adobe_xpath "http://ns.adobe.com/XPath/1.0/">
	<!ENTITY st0 "enable-background:new    ;">
	<!ENTITY st1 "fill:#7D5321;">
]>
<svg version="1.1" xmlns:x="&ns_extend;" xmlns:i="&ns_ai;" xmlns:graph="&ns_graphs;"
	 xmlns="http://www.w3.org/2000/svg" xmlns:xlink="http://www.w3.org/1999/xlink" x="0px" y="0px" viewBox="0 0 135.12 31.68"
	 style="enable-background:new 0 0 135.12 31.68;" xml:space="preserve">
<metadata>
	<sfw  xmlns="&ns_sfw;">
		<slices></slices>
		<sliceSourceBounds  bottomLeftOrigin="true" height="26.15" width="124.64" x="188.11" y="236.78"></sliceSourceBounds>
	</sfw>
</metadata>
<g id="形状_4_1_" style="&st0;">
	<g id="形状_4">
		<g>
			<path style="&st1;" d="M11.86,22.95v-3.84H7.22c0,0-1.62-0.23-1.55,1.68v5.52l0.71,1.08l1.9,0.36l3.09-1.44l1.9-2.88
				C13.29,23.43,12.06,23.97,11.86,22.95z"/>
		</g>
	</g>
</g>
<g id="形状_2_1_" style="&st0;">
	<g id="形状_2">
		<g>
			<path style="&st1;" d="M22.09,15.27c0,0,0.34,0.25,0.36,0.72c0,0,0.02,0.52-0.36,0.72L8.53,26.79c0,0-2.04,1.05-2.85-1.32v2.4
				c0,0,0.04,1.13,1.07,1.2h9.75c0,0,8.88-0.34,11.06-7.44C27.56,21.63,28.92,17.29,22.09,15.27z"/>
		</g>
	</g>
</g>
<g id="形状_3_1_" style="&st0;">
	<g id="形状_3">
		<g>
			<path style="&st1;" d="M28.51,11.91c0,0-1.64-7.24-10.35-9h-4.64c0,0-2.15-0.16-2.14,2.76l0.12,3.6c0,0,0.33-1.51,1.9-0.48
				l8.92,6.72l3.69,2.76c0,0,2.85,2.29,0.48,5.76C26.49,24.03,30.88,18.81,28.51,11.91z"/>
		</g>
	</g>
</g>
<g id="形状_1_1_" style="&st0;">
	<g id="形状_1">
		<g>
			<path style="&st1;" d="M14.24,2.92H6.75c0,0-1.01,0.05-1.07,1.2v7.56c0,0-0.1,1.6,1.31,1.7h5.23V5.53
				C12.21,5.53,11.27,3.25,14.24,2.92z"/>
		</g>
	</g>
</g>
<g id="DBOOK">
	<g>
		<path style="&st1;" d="M46.07,7.03c5.38,0,8.92,1.53,8.92,9.16c0,7.07-3.54,9.15-8.92,9.15h-6.28V7.03H46.07z M45.86,21.91
			c3.38,0,4.99-1.27,4.99-5.72c0-4.72-1.69-5.78-4.99-5.78H43.8v11.5H45.86z"/>
		<path style="&st1;" d="M58.6,7.03h6.17c5.36,0,6.83,1.64,6.83,4.93c0,1.9-0.66,3.19-2.67,3.75v0.11c2.14,0.55,3.22,1.95,3.22,4.25
			c0,3.32-1.48,5.28-6.83,5.28H58.6V7.03z M63.95,14.57c2.61,0,3.69-0.4,3.69-2.19c0-1.9-1.06-2.16-3.69-2.16h-1.35v4.35H63.95z
			 M64.45,22.12c2.82,0,3.64-0.45,3.64-2.32c0-1.71-0.79-2.32-3.64-2.32h-1.85v4.64H64.45z"/>
		<path style="&st1;" d="M75.18,16.18c0-7.47,3.01-9.42,8.31-9.42c5.38,0,8.31,1.95,8.31,9.42c0,7.47-2.93,9.42-8.31,9.42
			C78.19,25.6,75.18,23.65,75.18,16.18z M87.61,16.18c0-4.46-0.74-6.15-4.12-6.15c-3.35,0-4.09,1.69-4.09,6.15
			c0,4.51,0.74,6.07,4.09,6.07C86.87,22.25,87.61,20.69,87.61,16.18z"/>
		<path style="&st1;" d="M94.89,16.18c0-7.47,3.01-9.42,8.31-9.42c5.38,0,8.31,1.95,8.31,9.42c0,7.47-2.93,9.42-8.31,9.42
			C97.9,25.6,94.89,23.65,94.89,16.18z M107.31,16.18c0-4.46-0.74-6.15-4.12-6.15c-3.35,0-4.09,1.69-4.09,6.15
			c0,4.51,0.74,6.07,4.09,6.07C106.58,22.25,107.31,20.69,107.31,16.18z"/>
		<path style="&st1;" d="M130.31,25.34h-4.85l-5.38-8.02h-0.98v8.02h-4.01V7.03h4.01v7.04h0.98l5.28-7.04h4.7l-6.67,8.5
			L130.31,25.34z"/>
	</g>
</g>
</svg>
