<?xml version="1.0" encoding="utf-8"?>
<!-- Generator: Adobe Illustrator 23.0.0, SVG Export Plug-In . SVG Version: 6.00 Build 0)  -->
<!DOCTYPE svg PUBLIC "-//W3C//DTD SVG 1.1//EN" "http://www.w3.org/Graphics/SVG/1.1/DTD/svg11.dtd" [
	<!ENTITY ns_extend "http://ns.adobe.com/Extensibility/1.0/">
	<!ENTITY ns_ai "http://ns.adobe.com/AdobeIllustrator/10.0/">
	<!ENTITY ns_graphs "http://ns.adobe.com/Graphs/1.0/">
	<!ENTITY ns_vars "http://ns.adobe.com/Variables/1.0/">
	<!ENTITY ns_imrep "http://ns.adobe.com/ImageReplacement/1.0/">
	<!ENTITY ns_sfw "http://ns.adobe.com/SaveForWeb/1.0/">
	<!ENTITY ns_custom "http://ns.adobe.com/GenericCustomNamespace/1.0/">
	<!ENTITY ns_adobe_xpath "http://ns.adobe.com/XPath/1.0/">
	<!ENTITY st0 "enable-background:new    ;">
	<!ENTITY st1 "fill-rule:evenodd;clip-rule:evenodd;fill:#7D5321;">
	<!ENTITY st2 "fill:#7D5321;">
]>
<svg version="1.1" xmlns:x="&ns_extend;" xmlns:i="&ns_ai;" xmlns:graph="&ns_graphs;"
	 xmlns="http://www.w3.org/2000/svg" xmlns:xlink="http://www.w3.org/1999/xlink" x="0px" y="0px" viewBox="0 0 103.68 31.68"
	 style="enable-background:new 0 0 103.68 31.68;" xml:space="preserve">
<metadata>
	<sfw  xmlns="&ns_sfw;">
		<slices></slices>
		<sliceSourceBounds  bottomLeftOrigin="true" height="26.15" width="91.86" x="-16.17" y="16.78"></sliceSourceBounds>
	</sfw>
</metadata>
<g id="Dbook_1_" style="&st0;">
	<g id="Dbook">
		<g>
			<path style="&st1;" d="M42.12,9.58h-4.41v13.61h4.41c3.96,0,6.61-1.55,6.61-6.8C48.73,10.72,46.08,9.58,42.12,9.58z M42.01,20.97
				h-1.73v-9.22h1.73c2.57,0,4.08,0.84,4.08,4.63C46.08,19.97,44.63,20.97,42.01,20.97z M57.26,12.4c-1.94,0-2.82,0.75-3.27,1.69
				v-5.8h-2.45v14.9h2.22l0.2-1.61c0.41,1.1,1.29,1.8,3.31,1.8c3.47,0,4.27-2.49,4.27-5.49C61.54,14.58,60.73,12.4,57.26,12.4z
				 M56.59,21.48c-2.14,0-2.75-1.41-2.75-3.59c0-2.27,0.61-3.61,2.75-3.61c2.12,0,2.41,1.57,2.41,3.61
				C59.01,19.79,58.73,21.48,56.59,21.48z M68.58,12.4c-3.22,0-5.08,1.2-5.08,5.49s1.86,5.49,5.08,5.49c3.24,0,5.1-1.2,5.1-5.49
				S71.81,12.4,68.58,12.4z M68.58,21.48c-1.9,0-2.55-0.84-2.55-3.59c0-2.75,0.61-3.61,2.55-3.61s2.57,0.86,2.57,3.61
				C71.14,20.64,70.54,21.48,68.58,21.48z M80.71,12.4c-3.22,0-5.08,1.2-5.08,5.49s1.86,5.49,5.08,5.49c3.24,0,5.1-1.2,5.1-5.49
				S83.95,12.4,80.71,12.4z M80.71,21.48c-1.9,0-2.55-0.84-2.55-3.59c0-2.75,0.61-3.61,2.55-3.61c1.94,0,2.57,0.86,2.57,3.61
				C83.28,20.64,82.67,21.48,80.71,21.48z M93.36,17.52l4-4.92h-2.9l-3.06,4.04h-0.61V8.28h-2.45v14.9h2.45v-4.65h0.51l3.22,4.65
				h3.02L93.36,17.52z"/>
		</g>
	</g>
</g>
<g id="形状_4_1_" style="&st0;">
	<g id="形状_4">
		<g>
			<path style="&st2;" d="M11.86,22.95v-3.84H7.22c0,0-1.62-0.23-1.55,1.68v5.52l0.71,1.08l1.9,0.36l3.09-1.44l1.9-2.88
				C13.29,23.43,12.06,23.97,11.86,22.95z"/>
		</g>
	</g>
</g>
<g id="形状_2_1_" style="&st0;">
	<g id="形状_2">
		<g>
			<path style="&st2;" d="M22.09,15.27c0,0,0.34,0.25,0.36,0.72c0,0,0.02,0.52-0.36,0.72L8.53,26.79c0,0-2.04,1.05-2.85-1.32v2.4
				c0,0,0.04,1.13,1.07,1.2h9.75c0,0,8.88-0.34,11.06-7.44C27.56,21.63,28.92,17.29,22.09,15.27z"/>
		</g>
	</g>
</g>
<g id="形状_3_1_" style="&st0;">
	<g id="形状_3">
		<g>
			<path style="&st2;" d="M28.51,11.91c0,0-1.64-7.24-10.34-9h-4.64c0,0-2.15-0.16-2.14,2.76l0.12,3.6c0,0,0.33-1.51,1.9-0.48
				l8.92,6.72l3.69,2.76c0,0,2.85,2.29,0.48,5.76C26.49,24.03,30.88,18.81,28.51,11.91z"/>
		</g>
	</g>
</g>
<g id="形状_1_1_" style="&st0;">
	<g id="形状_1">
		<g>
			<path style="&st2;" d="M14.24,2.92H6.75c0,0-1.01,0.05-1.07,1.2v7.56c0,0-0.1,1.6,1.31,1.7h5.23V5.53
				C12.21,5.53,11.27,3.25,14.24,2.92z"/>
		</g>
	</g>
</g>
</svg>
