<?xml version="1.0" encoding="utf-8"?>
<!-- Generator: Adobe Illustrator 23.0.0, SVG Export Plug-In . SVG Version: 6.00 Build 0)  -->
<!DOCTYPE svg PUBLIC "-//W3C//DTD SVG 1.1//EN" "http://www.w3.org/Graphics/SVG/1.1/DTD/svg11.dtd" [
	<!ENTITY ns_extend "http://ns.adobe.com/Extensibility/1.0/">
	<!ENTITY ns_ai "http://ns.adobe.com/AdobeIllustrator/10.0/">
	<!ENTITY ns_graphs "http://ns.adobe.com/Graphs/1.0/">
	<!ENTITY ns_vars "http://ns.adobe.com/Variables/1.0/">
	<!ENTITY ns_imrep "http://ns.adobe.com/ImageReplacement/1.0/">
	<!ENTITY ns_sfw "http://ns.adobe.com/SaveForWeb/1.0/">
	<!ENTITY ns_custom "http://ns.adobe.com/GenericCustomNamespace/1.0/">
	<!ENTITY ns_adobe_xpath "http://ns.adobe.com/XPath/1.0/">
	<!ENTITY st0 "enable-background:new    ;">
	<!ENTITY st1 "fill:#6783E9;">
	<!ENTITY st2 "fill:#213683;">
	<!ENTITY st3 "fill:#2E4498;">
	<!ENTITY st4 "fill:#4860B9;">
	<!ENTITY st5 "fill-rule:evenodd;clip-rule:evenodd;fill:#6783E9;">
	<!ENTITY st6 "fill-rule:evenodd;clip-rule:evenodd;fill:#6A86EC;">
	<!ENTITY st7 "fill:#FFFFFF;">
]>
<svg version="1.1" xmlns:x="&ns_extend;" xmlns:i="&ns_ai;" xmlns:graph="&ns_graphs;"
	 xmlns="http://www.w3.org/2000/svg" xmlns:xlink="http://www.w3.org/1999/xlink" x="0px" y="0px" viewBox="0 0 434 62"
	 style="enable-background:new 0 0 434 62;" xml:space="preserve">
<metadata>
	<sfw  xmlns="&ns_sfw;">
		<slices></slices>
		<sliceSourceBounds  bottomLeftOrigin="true" height="42.01" width="353" x="58" y="229.99"></sliceSourceBounds>
	</sfw>
</metadata>
<g id="形状_1_1_" style="&st0;">
	<g id="形状_1">
		<g>
			<path style="&st1;" d="M39.01,9.01H26.75c0,0-1.65,0.08-1.75,1.93v12.14c0,0-0.07,1.8,1.75,2.12h7.78V13.63
				C34.53,13.63,34.16,9.54,39.01,9.01z"/>
		</g>
	</g>
</g>
<g id="形状_4_1_" style="&st0;">
	<g id="形状_4">
		<g>
			<path style="&st2;" d="M35.12,41.18v-6.17h-7.59c0,0-2.64-0.38-2.53,2.7v8.86l1.17,1.73l3.11,0.58l5.06-2.31l3.11-4.62
				C37.45,41.96,35.44,42.83,35.12,41.18z"/>
		</g>
	</g>
</g>
<g id="形状_2_1_" style="&st0;">
	<g id="形状_2">
		<g>
			<path style="&st3;" d="M51.85,28.85c0,0,0.55,0.41,0.58,1.16c0,0,0.04,0.84-0.58,1.16L29.67,47.35c0,0-3.33,1.69-4.67-2.12v3.85
				c0,0,0.06,1.81,1.75,1.93H42.7c0,0,14.53-0.55,18.09-11.95C60.8,39.07,63.02,32.09,51.85,28.85z"/>
		</g>
	</g>
</g>
<g id="形状_3_1_" style="&st0;">
	<g id="形状_3">
		<g>
			<path style="&st4;" d="M62.35,23.46c0,0-2.69-11.63-16.93-14.45h-7.59c0,0-3.52-0.25-3.5,4.43l0.19,5.78c0,0,0.54-2.43,3.11-0.77
				l14.59,10.79l6.03,4.43c0,0,4.67,3.69,0.78,9.25C59.05,42.92,66.24,34.54,62.35,23.46z"/>
		</g>
	</g>
</g>
<g id="D-BOOK_1_" style="&st0;">
	<g id="D-BOOK">
		<g>
			<path style="&st5;" d="M84.53,21.85h-7.73v19.96h7.73c6.04,0,9.9-2.27,9.9-9.98C94.44,23.52,90.57,21.85,84.53,21.85z
				 M84.18,36.92h-1.6v-10.3h1.6c3.25,0,4.24,1.04,4.24,5.21C88.42,35.83,87.55,36.92,84.18,36.92z M97.72,35.11h9.18v-4.26h-9.18
				V35.11z M123.34,31.4v-0.12c2.21-0.6,2.93-1.93,2.93-4c0-3.6-1.77-5.44-8.13-5.44h-7.52v19.96h8.16c6.3,0,8.02-2.22,8.02-5.81
				C126.8,33.35,125.43,32.06,123.34,31.4z M116.4,26.33h1.07c2.18,0,3.05,0.23,3.05,1.64c0,1.5-0.87,1.73-3.05,1.73h-1.07V26.33z
				 M117.91,37.29h-1.51v-3.62h1.51c2.38,0,3.05,0.49,3.05,1.87C120.96,36.95,120.26,37.29,117.91,37.29z M139.02,21.56
				c-5.98,0-9.5,2.07-9.5,10.27c0,8.23,3.51,10.27,9.5,10.27c6.01,0,9.5-2.04,9.5-10.27C148.52,23.63,145.04,21.56,139.02,21.56z
				 M139.02,37.38c-2.76,0-3.4-1.27-3.4-5.55c0-4.34,0.64-5.64,3.4-5.64s3.43,1.29,3.43,5.64
				C142.45,36.11,141.78,37.38,139.02,37.38z M160.81,21.56c-5.98,0-9.5,2.07-9.5,10.27c0,8.23,3.51,10.27,9.5,10.27
				c6.01,0,9.5-2.04,9.5-10.27C170.31,23.63,166.82,21.56,160.81,21.56z M160.81,37.38c-2.76,0-3.4-1.27-3.4-5.55
				c0-4.34,0.64-5.64,3.4-5.64c2.76,0,3.43,1.29,3.43,5.64C164.24,36.11,163.57,37.38,160.81,37.38z M185.04,31.08l6.68-9.23h-6.65
				l-4.88,7.19h-0.78v-7.19h-5.78v19.96h5.78v-8.28h0.78l4.94,8.28h6.88L185.04,31.08z"/>
		</g>
	</g>
</g>
<g id="多边形_1_1_" style="&st0;">
	<g id="多边形_1">
		<g>
			<path style="&st6;" d="M368,14H219c-5.52,0-10,4.48-10,10v0l-11.13,6.43L209,36.86V37c0,5.52,4.48,10,10,10h149
				c5.52,0,10-4.48,10-10V24C378,18.48,373.52,14,368,14z"/>
		</g>
	</g>
</g>
<g id="DEMO__Mubai_TestNet_x0D__x0D_">
	<g>
		<path style="&st7;" d="M223.18,25.02c2.96,0,5.01,0.87,5.01,5.21c0,4.02-2.05,5.2-5.01,5.2h-2.59V25.02H223.18z M223.24,34.8
			c2.47,0,4.2-1,4.2-4.57c0-3.78-1.81-4.58-4.2-4.58h-1.95v9.15H223.24z"/>
		<path style="&st7;" d="M236.81,34.76v0.67h-5.88V25.02h5.38v0.65h-4.68v3.98h4.38v0.63h-4.38v4.48H236.81z"/>
		<path style="&st7;" d="M239.21,25.02h1.2l3.27,6.99h0.09l3.24-6.99h1.2v10.41h-0.72v-9.72h-0.09l-3.28,7.05h-0.81l-3.3-7.05h-0.09
			v9.72h-0.71V25.02z"/>
		<path style="&st7;" d="M250.97,30.23c0-4.11,1.38-5.35,4.32-5.35c2.94,0,4.32,1.25,4.32,5.35c0,4.12-1.38,5.35-4.32,5.35
			C252.35,35.58,250.97,34.35,250.97,30.23z M258.88,30.23c0-3.42-0.87-4.71-3.58-4.71s-3.58,1.29-3.58,4.71
			c0,3.42,0.87,4.71,3.58,4.71S258.88,33.65,258.88,30.23z"/>
		<path style="&st7;" d="M270.1,25.02h1.2l3.27,6.99h0.09l3.24-6.99h1.2v10.41h-0.72v-9.72h-0.09L275,32.76h-0.81l-3.3-7.05h-0.09
			v9.72h-0.71V25.02z"/>
		<path style="&st7;" d="M288.08,27.33v8.1h-0.57l-0.11-1.42c-0.28,1.16-1.54,1.58-2.7,1.58c-2.04,0-2.61-0.98-2.61-2.58v-5.67h0.67
			v5.25c0,1.68,0.38,2.37,2.01,2.37c1.1,0,2.31-0.32,2.63-1.94v-5.68H288.08z"/>
		<path style="&st7;" d="M297.94,31.38c0,2.54-0.75,4.2-3.15,4.2c-1.72,0-2.56-0.77-2.91-1.8l-0.12,1.65h-0.57v-11.4h0.67v5.07
			c0.32-1.16,1.19-1.92,2.92-1.92C297.19,27.18,297.94,28.61,297.94,31.38z M297.23,31.38c0-2.32-0.51-3.58-2.55-3.58
			c-2.21,0-2.85,1.5-2.85,3.58c0,2.05,0.64,3.58,2.85,3.58C296.77,34.97,297.23,33.6,297.23,31.38z"/>
		<path style="&st7;" d="M306.59,29.72v5.71h-0.57l-0.11-1.44c-0.48,1.02-1.72,1.59-3.18,1.59c-1.93,0-2.73-0.86-2.73-2.36
			c0-2.07,1.41-2.52,3.18-2.52h2.73v-0.89c0-1.27-0.42-2.01-2.26-2.01c-0.53,0-1.2,0.06-1.81,0.19v-0.66
			c0.6-0.1,1.27-0.17,1.86-0.17C306.13,27.18,306.59,28.29,306.59,29.72z M305.92,33.06v-1.75h-2.64c-1.67,0-2.59,0.3-2.59,1.92
			c0,1.16,0.67,1.73,2.04,1.73C304.33,34.95,305.51,34.31,305.92,33.06z"/>
		<path style="&st7;" d="M309.61,25.04c0-0.44,0.11-0.5,0.46-0.5c0.34,0,0.45,0.06,0.45,0.5s-0.11,0.5-0.45,0.5
			C309.71,25.53,309.61,25.47,309.61,25.04z M309.73,27.33h0.67v8.1h-0.67V27.33z"/>
		<path style="&st7;" d="M323.3,25.67h-3.25v9.76h-0.71v-9.76h-3.27v-0.65h7.23V25.67z"/>
		<path style="&st7;" d="M330.95,31.26l-5.71,0.41c0.04,2.38,0.69,3.3,2.91,3.3c0.84,0,1.88-0.18,2.53-0.5v0.64
			c-0.45,0.2-1.57,0.47-2.58,0.47c-2.52,0-3.56-1.02-3.56-4.2s1-4.2,3.48-4.2c2.68,0,2.96,1.78,2.96,3.3
			C330.98,30.71,331,30.95,330.95,31.26z M330.34,30.71c0-1.77-0.24-2.91-2.34-2.91c-2.12,0-2.71,0.93-2.76,3.3L330.34,30.71z"/>
		<path style="&st7;" d="M333.11,35.28v-0.64c0.6,0.17,1.42,0.27,2.32,0.27c1.44,0,2.13-0.48,2.13-1.6c0-0.96-0.39-1.35-1.95-1.75
			c-1.67-0.39-2.34-0.78-2.34-2.19c0-1.48,1.05-2.17,2.61-2.17c0.88,0,1.7,0.13,2.1,0.27l-0.04,0.66c-0.49-0.18-1.29-0.31-2.05-0.31
			c-1.15,0-1.93,0.42-1.93,1.56c0,1.09,0.62,1.3,1.77,1.59c1.77,0.45,2.52,0.91,2.52,2.35c0,1.37-0.83,2.22-2.81,2.22
			C334.6,35.52,333.76,35.45,333.11,35.28z"/>
		<path style="&st7;" d="M343.81,34.8v0.62c-0.31,0.06-0.71,0.1-1.05,0.1c-1.5,0-2.03-0.38-2.03-2.5v-5.07h-1.3v-0.61h1.3v-1.92
			h0.68v1.92h2.23v0.61h-2.23v5.1c0,1.46,0.28,1.86,1.33,1.86C343.16,34.91,343.46,34.88,343.81,34.8z"/>
		<path style="&st7;" d="M345.56,25.02h1.13l5.99,9.19h0.09v-9.19h0.71v10.41h-0.84l-6.27-9.69h-0.09v9.69h-0.71V25.02z"/>
		<path style="&st7;" d="M362.42,31.26l-5.71,0.41c0.04,2.38,0.69,3.3,2.91,3.3c0.84,0,1.88-0.18,2.54-0.5v0.64
			c-0.45,0.2-1.58,0.47-2.58,0.47c-2.52,0-3.55-1.02-3.55-4.2s1-4.2,3.48-4.2c2.68,0,2.95,1.78,2.95,3.3
			C362.45,30.71,362.47,30.95,362.42,31.26z M361.81,30.71c0-1.77-0.24-2.91-2.34-2.91c-2.12,0-2.71,0.93-2.76,3.3L361.81,30.71z"/>
		<path style="&st7;" d="M368.2,34.8v0.62c-0.31,0.06-0.71,0.1-1.05,0.1c-1.5,0-2.02-0.38-2.02-2.5v-5.07h-1.31v-0.61h1.31v-1.92
			h0.67v1.92h2.23v0.61h-2.23v5.1c0,1.46,0.29,1.86,1.33,1.86C367.55,34.91,367.85,34.88,368.2,34.8z"/>
	</g>
</g>
</svg>
