<?xml version="1.0" encoding="utf-8"?>
<!-- Generator: Adobe Illustrator 23.0.0, SVG Export Plug-In . SVG Version: 6.00 Build 0)  -->
<!DOCTYPE svg PUBLIC "-//W3C//DTD SVG 1.1//EN" "http://www.w3.org/Graphics/SVG/1.1/DTD/svg11.dtd" [
	<!ENTITY ns_extend "http://ns.adobe.com/Extensibility/1.0/">
	<!ENTITY ns_ai "http://ns.adobe.com/AdobeIllustrator/10.0/">
	<!ENTITY ns_graphs "http://ns.adobe.com/Graphs/1.0/">
	<!ENTITY ns_vars "http://ns.adobe.com/Variables/1.0/">
	<!ENTITY ns_imrep "http://ns.adobe.com/ImageReplacement/1.0/">
	<!ENTITY ns_sfw "http://ns.adobe.com/SaveForWeb/1.0/">
	<!ENTITY ns_custom "http://ns.adobe.com/GenericCustomNamespace/1.0/">
	<!ENTITY ns_adobe_xpath "http://ns.adobe.com/XPath/1.0/">
]>
<svg version="1.1" id="图层_1" xmlns:x="&ns_extend;" xmlns:i="&ns_ai;" xmlns:graph="&ns_graphs;"
	 xmlns="http://www.w3.org/2000/svg" xmlns:xlink="http://www.w3.org/1999/xlink" x="0px" y="0px" viewBox="0 0 160.73 174.75"
	 style="enable-background:new 0 0 160.73 174.75;" xml:space="preserve">
<metadata>
	<sfw  xmlns="&ns_sfw;">
		<slices></slices>
		<sliceSourceBounds  bottomLeftOrigin="true" height="144.56" width="212.88" x="-33.07" y="14.29"></sliceSourceBounds>
	</sfw>
</metadata>
<path d="M-33.07,160.46"/>
<path d="M179.81,160.46"/>
<path d="M-11.01,153.38"/>
<path d="M171.76,153.38"/>
<path d="M16.42,15.9c18.2,0,36.4,0,54.6,0c5.55,0.57,4.21,10.68,4.21,17.25c0,11.8,0,19.58,0,31.28c0,6.8,1.24,15.13-3.11,17.06
	c-2.83,1.26-10.44,0.38-14.11,0.38c-10.07,0-18.25,0-28.95,0c-6.69,0-15.83,1.65-16.86-4.36c0-19.09,0-38.17,0-57.26
	C12.95,18.13,14.27,16.58,16.42,15.9z M23.93,28.79c0,13.59,0,27.18,0,40.76c13.13,0,26.26,0,39.39,0c0-13.78,0-27.55,0-41.33
	c-13.07,0-26.14,0-39.21,0C23.9,28.25,23.92,28.52,23.93,28.79z M89.71,15.9c18.2,0,36.4,0,54.6,0c2.23,0.86,3.76,2.43,4.21,5.12
	c0,18.58,0,37.16,0,55.74c-0.5,2.32-1.67,4.29-3.85,4.93c-3.56,1.04-9.48,0.19-13.74,0.19c-10.04,0-18.28,0-28.03,0
	c-4.23,0-10.49,0.92-13.93-0.19c-4.84-1.57-3.48-11.36-3.48-18.2c0-9.09,0-19.71,0-29.2C85.5,26.38,83.82,17,89.71,15.9z
	 M97.22,28.79c0,13.59,0,27.18,0,40.76c13.13,0,26.26,0,39.39,0c0-13.78,0-27.55,0-41.33c-13.07,0-26.14,0-39.21,0
	C97.19,28.25,97.21,28.52,97.22,28.79z M41.89,40.73c5.49-1.07,9.8,2.76,9.89,7.96c0.12,6.86-6.64,10.62-11.91,7.77
	C33.85,53.21,34.24,42.23,41.89,40.73z M115.18,40.73c12.92-2.5,12.68,18.68,0,16.49C107.11,55.84,106.85,42.34,115.18,40.73z
	 M70.65,158.85c-18.02,0-36.03,0-54.05,0c-2.24-0.71-3.76-2.18-4.4-4.55c0-19.02,0-38.05,0-57.07c0.53-1.67,1.77-3.62,3.66-4.17
	c3.59-1.04,9.45-0.19,13.74-0.19c9.87,0,18.82,0,28.03,0c4.14,0,10.17-0.96,13.92,0.19c5.08,1.55,3.66,11.18,3.66,18.01
	c0,10.5,0,19.46,0,30.15C75.23,148.59,76.77,158.19,70.65,158.85z M23.93,105.77c0,13.59,0,27.18,0,40.76c13.13,0,26.26,0,39.39,0
	c0-13.78,0-27.55,0-41.33c-13.07,0-26.14,0-39.21,0C23.9,105.23,23.92,105.5,23.93,105.77z M148.52,97.99c0,5.31,0,10.62,0,15.93
	c-0.43,5.37-0.06,11.56-0.18,17.25c-13.01,0-26.02,0-39.03,0c0-3.1,0-6.19,0-9.29c-3.66-0.44-8.12-0.06-12.09-0.19
	c-0.43,12.01-0.06,24.84-0.18,37.16c-2.38,0-4.76,0-7.15,0c-6.14-1.27-4.4-10.81-4.4-18.39c0-10.57,0-19.26,0-29.39
	c0-4.42-0.86-11.04,0.18-14.6c1.25-4.24,6.67-3.6,12.09-3.6c9.17,0,17.34,0,26.57,0c0,8.41,0,16.81,0,25.22c4.09,0,8.18,0,12.28,0
	c0.12-8.34-0.24-17.19,0.18-25.22C142.71,92.51,148.18,92.6,148.52,97.99z M42.8,117.52c5.86-0.67,10.7,5.15,8.43,11.57
	c-3.15,8.89-18.21,5.55-15.39-5.69C36.62,120.29,38.87,117.97,42.8,117.52z M122.51,158.85c-4.4,0-8.79,0-13.19,0
	c0.12-4.87-0.24-10.24,0.18-14.79c4.34,0,8.67,0,13.01,0C122.51,148.99,122.51,153.92,122.51,158.85z M148.52,144.06
	c0,3.22,0,6.45,0,9.67c-0.51,2.7-2.03,4.34-4.4,5.12c-3.11,0-6.23,0-9.34,0c0.12-4.87-0.24-10.24,0.18-14.79
	C139.49,144.06,144,144.06,148.52,144.06z"/>
</svg>
