<?xml version="1.0" encoding="utf-8"?>
<!-- Generator: Adobe Illustrator 23.0.0, SVG Export Plug-In . SVG Version: 6.00 Build 0)  -->
<!DOCTYPE svg PUBLIC "-//W3C//DTD SVG 1.1//EN" "http://www.w3.org/Graphics/SVG/1.1/DTD/svg11.dtd" [
	<!ENTITY ns_extend "http://ns.adobe.com/Extensibility/1.0/">
	<!ENTITY ns_ai "http://ns.adobe.com/AdobeIllustrator/10.0/">
	<!ENTITY ns_graphs "http://ns.adobe.com/Graphs/1.0/">
	<!ENTITY ns_vars "http://ns.adobe.com/Variables/1.0/">
	<!ENTITY ns_imrep "http://ns.adobe.com/ImageReplacement/1.0/">
	<!ENTITY ns_sfw "http://ns.adobe.com/SaveForWeb/1.0/">
	<!ENTITY ns_custom "http://ns.adobe.com/GenericCustomNamespace/1.0/">
	<!ENTITY ns_adobe_xpath "http://ns.adobe.com/XPath/1.0/">
	<!ENTITY st0 "fill:#42392B;">
]>
<svg version="1.1" id="图层_1" xmlns:x="&ns_extend;" xmlns:i="&ns_ai;" xmlns:graph="&ns_graphs;"
	 xmlns="http://www.w3.org/2000/svg" xmlns:xlink="http://www.w3.org/1999/xlink" x="0px" y="0px" viewBox="0 0 200 200"
	 style="enable-background:new 0 0 200 200;" xml:space="preserve">
<metadata>
	<sfw  xmlns="&ns_sfw;">
		<slices></slices>
		<sliceSourceBounds  bottomLeftOrigin="true" height="200" width="200" x="0" y="0"></sliceSourceBounds>
	</sfw>
</metadata>
<path style="&st0;" d="M200,100C200,44.77,155.23,0,100,0S0,44.77,0,100s44.77,100,100,100S200,155.23,200,100z M46.15,135.54
	c1.73,0.22,3.49,0.34,5.27,0.34c10.35,0.02,19.88-3.72,27.44-9.99c-9.67-0.23-17.83-7.06-20.64-16.45c1.35,0.28,2.74,0.45,4.15,0.45
	c2.02,0.01,3.96-0.26,5.82-0.79c-10.11-2.24-17.73-11.83-17.73-23.25c0-0.1,0-0.2,0-0.3c2.98,1.8,6.38,2.89,10.01,3.05
	c-5.92-4.28-9.82-11.55-9.82-19.74c0-4.33,1.09-8.36,2.99-11.82c10.9,14.41,27.18,23.97,45.54,25.16c-0.38-1.72-0.57-3.51-0.57-5.34
	c0-12.92,9.89-23.23,22.09-23.03c6.35,0.11,12.1,3.03,16.13,7.61c5.04-0.96,9.76-2.82,14.03-5.41c-1.65,5.39-5.15,9.88-9.72,12.69
	c4.47-0.5,8.73-1.68,12.69-3.47c-2.96,4.61-6.71,8.64-11.03,11.85c0.05,1,0.06,2,0.06,3c0,30.67-22.23,66.05-62.86,66.03
	C67.55,146.15,55.93,142.25,46.15,135.54z"/>
</svg>
