<?xml version="1.0" encoding="utf-8"?>
<!-- Generator: Adobe Illustrator 23.0.0, SVG Export Plug-In . SVG Version: 6.00 Build 0)  -->
<!DOCTYPE svg PUBLIC "-//W3C//DTD SVG 1.1//EN" "http://www.w3.org/Graphics/SVG/1.1/DTD/svg11.dtd" [
	<!ENTITY ns_extend "http://ns.adobe.com/Extensibility/1.0/">
	<!ENTITY ns_ai "http://ns.adobe.com/AdobeIllustrator/10.0/">
	<!ENTITY ns_graphs "http://ns.adobe.com/Graphs/1.0/">
	<!ENTITY ns_vars "http://ns.adobe.com/Variables/1.0/">
	<!ENTITY ns_imrep "http://ns.adobe.com/ImageReplacement/1.0/">
	<!ENTITY ns_sfw "http://ns.adobe.com/SaveForWeb/1.0/">
	<!ENTITY ns_custom "http://ns.adobe.com/GenericCustomNamespace/1.0/">
	<!ENTITY ns_adobe_xpath "http://ns.adobe.com/XPath/1.0/">
	<!ENTITY st0 "fill:#42392B;">
	<!ENTITY st1 "fill:#FFE1B4;">
]>
<svg version="1.1" id="图层_1" xmlns:x="&ns_extend;" xmlns:i="&ns_ai;" xmlns:graph="&ns_graphs;"
	 xmlns="http://www.w3.org/2000/svg" xmlns:xlink="http://www.w3.org/1999/xlink" x="0px" y="0px" viewBox="0 0 200 200"
	 style="enable-background:new 0 0 200 200;" xml:space="preserve">
<metadata>
	<sfw  xmlns="&ns_sfw;">
		<slices></slices>
		<sliceSourceBounds  bottomLeftOrigin="true" height="200" width="200" x="0" y="0"></sliceSourceBounds>
	</sfw>
</metadata>
<path style="&st0;" d="M0,100c0,55.23,44.77,100,100,100s100-44.77,100-100S155.23,0,100,0S0,44.77,0,100z"/>
<path style="&st1;" d="M115.21,126.08v15.81c0,3.35-0.97,5.02-2.92,5.02c-1.15,0-2.27-0.55-3.37-1.65V122.7
	c1.1-1.1,2.22-1.65,3.37-1.65C114.24,121.06,115.21,122.73,115.21,126.08z M140.54,126.15v3.45h-6.74v-3.45c0-3.4,1.12-5.1,3.37-5.1
	C139.42,121.06,140.54,122.76,140.54,126.15z M68.15,109.82h8.02v-7.04H52.79v7.04h7.87v42.64h7.49V109.82L68.15,109.82z
	 M89.73,152.46h6.67v-37.02h-6.67v28.33c-1.5,2.1-2.92,3.15-4.27,3.15c-0.9,0-1.42-0.52-1.57-1.57c-0.05-0.15-0.07-1.02-0.07-2.62
	v-27.28h-6.67v29.3c0,2.45,0.2,4.27,0.6,5.47c0.6,1.85,2.05,2.77,4.35,2.77c2.4,0,4.95-1.52,7.64-4.57L89.73,152.46L89.73,152.46z
	 M121.88,141.37V126.6c0-3.65-0.22-6.12-0.67-7.42c-0.85-2.8-2.62-4.2-5.32-4.2c-2.5,0-4.82,1.35-6.97,4.05v-16.26h-6.67v49.68h6.67
	v-3.6c2.25,2.75,4.57,4.12,6.97,4.12c2.7,0,4.47-1.37,5.32-4.12C121.66,147.51,121.88,145.01,121.88,141.37L121.88,141.37z
	 M147.21,140.62v-0.97h-6.82c0,2.55-0.05,4.07-0.15,4.57c-0.35,1.8-1.35,2.7-3,2.7c-2.3,0-3.45-1.72-3.45-5.17v-6.52h13.41v-7.72
	c0-3.95-0.67-6.84-2.02-8.69c-1.95-2.55-4.6-3.82-7.94-3.82c-3.4,0-6.07,1.27-8.02,3.82c-1.4,1.85-2.1,4.75-2.1,8.69v12.96
	c0,3.95,0.72,6.84,2.17,8.69c1.95,2.55,4.65,3.82,8.09,3.82c3.6,0,6.29-1.32,8.09-3.97c0.9-1.35,1.42-2.7,1.57-4.05
	C147.16,144.51,147.21,143.06,147.21,140.62L147.21,140.62z M101.65,72.2V56.46c0-3.45-1.07-5.17-3.22-5.17s-3.22,1.72-3.22,5.17
	V72.2c0,3.5,1.07,5.25,3.22,5.25S101.65,75.7,101.65,72.2z M155.53,128.48c0,11.69-0.65,20.43-1.95,26.23
	c-0.7,2.95-2.15,5.42-4.35,7.42s-4.75,3.15-7.64,3.45c-9.19,1.05-23.06,1.57-41.59,1.57s-32.4-0.52-41.59-1.57
	c-2.9-0.3-5.46-1.45-7.68-3.45s-3.66-4.47-4.31-7.42c-1.3-5.6-1.95-14.34-1.95-26.23c0-11.69,0.65-20.43,1.95-26.23
	c0.7-2.95,2.15-5.42,4.35-7.42c2.2-2,4.77-3.17,7.72-3.52c9.14-1,22.98-1.5,41.52-1.5s32.4,0.5,41.59,1.5
	c2.9,0.35,5.46,1.52,7.68,3.52s3.66,4.47,4.31,7.42C154.88,107.84,155.53,116.59,155.53,128.48L155.53,128.48z M80.74,32.86h7.64
	l-9.07,29.9v20.31h-7.49V62.76c-0.7-3.7-2.22-8.99-4.57-15.89c-1.85-5.15-3.47-9.82-4.87-14.01h7.94l5.32,19.71L80.74,32.86z
	 M108.47,57.81v13.11c0,4.05-0.7,6.99-2.1,8.84c-1.9,2.55-4.55,3.82-7.94,3.82c-3.35,0-5.97-1.27-7.87-3.82
	c-1.4-1.9-2.1-4.85-2.1-8.84V57.81c0-4,0.7-6.92,2.1-8.77c1.9-2.55,4.52-3.82,7.87-3.82c3.4,0,6.04,1.27,7.94,3.82
	C107.77,50.89,108.47,53.81,108.47,57.81z M133.57,45.67v37.39h-6.82v-4.12c-2.65,3.1-5.22,4.65-7.72,4.65
	c-2.3,0-3.77-0.92-4.42-2.77c-0.4-1.2-0.6-3.07-0.6-5.62V45.67h6.82v27.5c0,1.65,0.02,2.52,0.07,2.62c0.15,1.1,0.67,1.65,1.57,1.65
	c1.35,0,2.77-1.07,4.27-3.22V45.67C126.75,45.67,133.57,45.67,133.57,45.67z"/>
</svg>
